<svg width="24" height="24" viewBox="0 0 24 24" fill="none" xmlns="http://www.w3.org/2000/svg">
<path d="M3.85002 13.9547L4.1 13.8104V13.5217V4.8001C4.1 4.61445 4.17374 4.4364 4.30502 4.30512C4.4363 4.17385 4.61434 4.1001 4.8 4.1001C4.98565 4.1001 5.16369 4.17385 5.29497 4.30512L5.64852 3.95157L5.29497 4.30512C5.42625 4.4364 5.5 4.61445 5.5 4.8001V13.5217V13.8104L5.74997 13.9547C6.03879 14.1215 6.27862 14.3613 6.44536 14.6501C6.61211 14.939 6.69989 15.2666 6.69989 15.6001C6.69989 15.9336 6.61211 16.2612 6.44536 16.5501C6.27862 16.8389 6.03879 17.0787 5.74997 17.2455L5.5 17.3898V17.6785V19.2001C5.5 19.3857 5.42625 19.5638 5.29497 19.6951C5.1637 19.8263 4.98565 19.9001 4.8 19.9001C4.61434 19.9001 4.4363 19.8263 4.30502 19.6951C4.17375 19.5638 4.1 19.3857 4.1 19.2001V17.6785V17.3898L3.85002 17.2455C3.5612 17.0787 3.32137 16.8389 3.15463 16.5501L2.72161 16.8L3.15463 16.5501C2.98788 16.2612 2.9001 15.9336 2.9001 15.6001C2.9001 15.2666 2.98788 14.939 3.15463 14.6501C3.32137 14.3613 3.5612 14.1215 3.85002 13.9547ZM11.3 6.61036V6.3217V4.8001C11.3 4.61445 11.3737 4.4364 11.505 4.30512L11.1538 3.9539L11.505 4.30512C11.6363 4.17385 11.8143 4.1001 12 4.1001C12.1856 4.1001 12.3637 4.17385 12.495 4.30512C12.6262 4.4364 12.7 4.61445 12.7 4.8001V6.3217V6.61036L12.95 6.7547C13.2388 6.92146 13.4786 7.16131 13.6454 7.45014C13.8121 7.73897 13.8999 8.06659 13.8999 8.4001C13.8999 8.7336 13.8121 9.06123 13.6454 9.35006C13.4786 9.63888 13.2388 9.87873 12.95 10.0455L12.7 10.1898V10.4785V19.2001C12.7 19.3857 12.6262 19.5638 12.495 19.6951C12.3637 19.8263 12.1856 19.9001 12 19.9001C11.8143 19.9001 11.6363 19.8263 11.505 19.6951C11.3737 19.5638 11.3 19.3857 11.3 19.2001V10.4785V10.1898L11.05 10.0455C10.7612 9.87873 10.5214 9.63888 10.3546 9.35006C10.1879 9.06123 10.1001 8.7336 10.1001 8.4001C10.1001 8.06659 10.1879 7.73897 10.3546 7.45014C10.5214 7.16131 10.7612 6.92146 11.05 6.7547L11.3 6.61036ZM19.9 13.5217V13.8104L20.15 13.9547C20.4388 14.1215 20.6786 14.3613 20.8454 14.6501C21.0121 14.939 21.0999 15.2666 21.0999 15.6001C21.0999 15.9336 21.0121 16.2612 20.8454 16.5501C20.6786 16.8389 20.4388 17.0787 20.15 17.2455L19.9 17.3898V17.6785V19.2001C19.9 19.3857 19.8262 19.5638 19.695 19.6951C19.5637 19.8263 19.3856 19.9001 19.2 19.9001C19.0143 19.9001 18.8363 19.8263 18.705 19.6951C18.5737 19.5638 18.5 19.3857 18.5 19.2001V17.6785V17.3898L18.25 17.2455C17.9612 17.0787 17.7214 16.8389 17.5546 16.5501C17.3879 16.2612 17.3001 15.9336 17.3001 15.6001C17.3001 15.2666 17.3879 14.939 17.5546 14.6501C17.7214 14.3613 17.9612 14.1215 18.25 13.9547L18.5 13.8104V13.5217V4.8001C18.5 4.61445 18.5737 4.4364 18.705 4.30512C18.8363 4.17385 19.0143 4.1001 19.2 4.1001C19.3856 4.1001 19.5637 4.17385 19.695 4.30512C19.8262 4.4364 19.9 4.61444 19.9 4.8001V13.5217Z" fill="#9CA3AF" stroke="#9CA3AF"/>
</svg>
