<svg width="128" height="32" viewBox="0 0 128 32" fill="none" xmlns="http://www.w3.org/2000/svg">
<path d="M7.86105 8.0022H0V32H23.5775V23.9979H7.86105V8.0022Z" fill="#3B65F3"/>
<path d="M24.8528 0H15.7192V8.00217H23.5774V23.9993H31.4385V6.69905C31.4385 2.99919 28.4901 0 24.8528 0Z" fill="#3B65F3"/>
<path d="M46.8184 24.0001C45.8714 24.0001 44.9867 23.804 44.1657 23.4135C43.3447 23.0229 42.6242 22.4664 42.0056 21.7456C41.387 21.0247 40.8987 20.1501 40.542 19.1201C40.1839 18.0901 40.0055 16.938 40.0055 15.6607C40.0055 14.3849 40.1839 13.2313 40.542 12.2013C40.9001 11.1713 41.387 10.2966 42.0056 9.57581C42.6242 8.85498 43.3433 8.29851 44.1657 7.90793C44.9867 7.51735 45.8714 7.32131 46.8184 7.32131C47.6295 7.32131 48.3203 7.44949 48.8907 7.70737C49.4612 7.96524 49.9396 8.24724 50.3261 8.55639C50.7705 8.92736 51.1471 9.33905 51.4571 9.79146H51.6014V1.91504H55.6612V23.5371H51.6014V21.5299H51.4571C51.1471 21.9838 50.7705 22.3955 50.3261 22.765C49.9396 23.0741 49.4612 23.3577 48.8907 23.614C48.3217 23.8704 47.6309 24.0001 46.8184 24.0001ZM47.8333 20.2934C48.9346 20.2934 49.8377 19.8922 50.5441 19.0884C51.249 18.2847 51.6029 17.1431 51.6029 15.6592C51.6029 14.1768 51.2504 13.0337 50.5441 12.2299C49.8377 11.4262 48.9346 11.025 47.8333 11.025C46.8085 11.025 45.9493 11.4262 45.2528 12.2299C44.5564 13.0322 44.2096 14.1753 44.2096 15.6592C44.2096 17.1416 44.5578 18.2847 45.2528 19.0884C45.9493 19.8907 46.8085 20.2934 47.8333 20.2934Z" fill="black"/>
<path d="M64.9399 23.9998C63.9929 23.9998 63.1082 23.8038 62.2872 23.4132C61.4662 23.0226 60.7457 22.4662 60.1271 21.7453C59.5085 21.0245 59.0201 20.1498 58.6634 19.1198C58.3053 18.0899 58.127 16.9377 58.127 15.6604C58.127 14.3846 58.3053 13.231 58.6634 12.201C59.0216 11.171 59.5085 10.2964 60.1271 9.57555C60.7457 8.85471 61.4648 8.29824 62.2872 7.90766C63.1082 7.51709 63.9929 7.32104 64.9399 7.32104C65.751 7.32104 66.4417 7.44923 67.0122 7.7071C67.5826 7.96497 68.0611 8.24697 68.4475 8.55612C68.892 8.92709 69.2685 9.33878 69.5785 9.79119H69.7229V7.7825H73.7826V23.5353H69.7229V21.5282H69.5785C69.2685 21.9821 68.892 22.3938 68.4475 22.7632C68.0611 23.0724 67.5826 23.3559 67.0122 23.6122C66.4417 23.8701 65.751 23.9998 64.9399 23.9998ZM65.9548 20.2931C67.0561 20.2931 67.9592 19.8919 68.6655 19.0882C69.3704 18.2844 69.7243 17.1428 69.7243 15.6589C69.7243 14.1765 69.3719 13.0334 68.6655 12.2297C67.9592 11.4259 67.0561 11.0248 65.9548 11.0248C64.93 11.0248 64.0707 11.4259 63.3743 12.2297C62.6779 13.0319 62.3311 14.175 62.3311 15.6589C62.3311 17.1413 62.6793 18.2844 63.3743 19.0882C64.0693 19.8904 64.93 20.2931 65.9548 20.2931Z" fill="black"/>
<path d="M77.6967 11.4893H75.8126V7.78259H77.6967V4.38501H81.7564V7.78259H85.9605V11.4893H81.7564V19.8287H86.1049V23.5354H77.6967V11.4893Z" fill="black"/>
<path d="M90.4533 5.77548C89.7965 5.77548 89.2444 5.54324 88.8013 5.08028C88.3569 4.61731 88.1346 4.07593 88.1346 3.45915C88.1346 2.84237 88.3569 2.30098 88.8013 1.83802C89.2458 1.37506 89.7965 1.14282 90.4533 1.14282C91.1101 1.14282 91.6607 1.37506 92.1052 1.83802C92.5497 2.30098 92.7719 2.84237 92.7719 3.45915C92.7719 4.07593 92.5497 4.61731 92.1052 5.08028C91.6621 5.54324 91.1101 5.77548 90.4533 5.77548ZM88.4234 7.78266H92.4831V23.5355H88.4234V7.78266Z" fill="black"/>
<path d="M102.921 23.9998C101.762 23.9998 100.683 23.7842 99.6881 23.3514C98.6915 22.9186 97.8323 22.3274 97.1076 21.5749C96.3828 20.8239 95.8166 19.9372 95.4118 18.9193C95.0055 17.8998 94.8031 16.8141 94.8031 15.6604C94.8031 14.5068 95.0055 13.421 95.4118 12.4016C95.818 11.3822 96.3828 10.4969 97.1076 9.74595C97.8323 8.99495 98.6915 8.4023 99.6881 7.96949C100.683 7.53669 101.762 7.32104 102.921 7.32104C104.08 7.32104 105.153 7.53669 106.14 7.96949C107.125 8.4023 107.982 8.99344 108.706 9.74595C109.431 10.4985 110.002 11.3837 110.418 12.4016C110.832 13.421 111.041 14.5068 111.041 15.6604C111.041 16.8141 110.832 17.8998 110.418 18.9193C110.002 19.9387 109.433 20.8239 108.706 21.5749C107.982 22.3274 107.127 22.9186 106.14 23.3514C105.153 23.7827 104.08 23.9998 102.921 23.9998ZM102.921 20.2931C103.462 20.2931 103.97 20.18 104.443 19.9538C104.916 19.7276 105.332 19.4139 105.69 19.0113C106.048 18.6101 106.328 18.1261 106.531 17.559C106.733 16.9935 106.835 16.3601 106.835 15.6589C106.835 14.9592 106.733 14.3258 106.531 13.7588C106.328 13.1933 106.048 12.7092 105.69 12.3066C105.332 11.9054 104.917 11.5918 104.443 11.3641C103.969 11.1379 103.462 11.0248 102.921 11.0248C102.38 11.0248 101.872 11.1379 101.399 11.3641C100.925 11.5903 100.51 11.9039 100.152 12.3066C99.7942 12.7077 99.514 13.1918 99.3115 13.7588C99.1091 14.3258 99.0072 14.9592 99.0072 15.6589C99.0072 16.3586 99.1091 16.992 99.3115 17.559C99.514 18.1261 99.7942 18.6086 100.152 19.0113C100.51 19.4124 100.925 19.7276 101.399 19.9538C101.872 20.18 102.379 20.2931 102.921 20.2931Z" fill="black"/>
<path d="M113.358 7.78255H117.418V9.94505H117.562C117.832 9.45042 118.19 9.01762 118.635 8.64815C119.021 8.3194 119.5 8.01478 120.07 7.73731C120.641 7.45983 121.35 7.31958 122.201 7.31958C124.017 7.31958 125.438 7.88057 126.463 9.00254C127.488 10.1245 128 11.7773 128 13.9609V23.5369H123.94V14.5792C123.94 13.406 123.67 12.5208 123.129 11.9236C122.588 11.3264 121.844 11.0278 120.897 11.0278C120.433 11.0278 119.988 11.1304 119.564 11.337C119.139 11.5436 118.767 11.8256 118.447 12.186C118.128 12.5464 117.876 12.9837 117.692 13.4995C117.508 14.0137 117.416 14.5807 117.416 15.199V23.5384H113.356V7.78255H113.358Z" fill="black"/>
</svg>
