<svg xmlns="http://www.w3.org/2000/svg" width="256" height="64" viewBox="0 0 256 64" fill="none">
    <path d="M15.7221 16.0044H0V64.0001H47.1549V47.9957H15.7221V16.0044Z" fill="white"/>
    <path d="M49.7057 0H31.4385V16.0043H47.1549V47.9986H62.877V13.3981C62.877 5.99837 56.9801 0 49.7057 0Z" fill="white"/>
    <path d="M93.6368 47.9999C91.7428 47.9999 89.9734 47.6078 88.3314 46.8267C86.6894 46.0455 85.2484 44.9326 84.0113 43.4909C82.7741 42.0492 81.7974 40.2999 81.084 38.24C80.3677 36.18 80.011 33.8757 80.011 31.3211C80.011 28.7696 80.3677 26.4623 81.084 24.4023C81.8002 22.3424 82.7741 20.5931 84.0113 19.1514C85.2484 17.7097 86.6866 16.5968 88.3314 15.8156C89.9734 15.0345 91.7428 14.6424 93.6368 14.6424C95.259 14.6424 96.6405 14.8987 97.7815 15.4145C98.9224 15.9302 99.8793 16.4942 100.652 17.1125C101.541 17.8545 102.294 18.6779 102.914 19.5827H103.203V3.82983H111.322V47.074H103.203V43.0596H102.914C102.294 43.9674 101.541 44.7908 100.652 45.5298C99.8793 46.148 98.9224 46.7151 97.7815 47.2278C96.6434 47.7405 95.2618 47.9999 93.6368 47.9999ZM95.6667 40.5865C97.8692 40.5865 99.6754 39.7842 101.088 38.1766C102.498 36.5691 103.206 34.2859 103.206 31.3181C103.206 28.3533 102.501 26.0672 101.088 24.4596C99.6754 22.8521 97.8692 22.0498 95.6667 22.0498C93.617 22.0498 91.8985 22.8521 90.5057 24.4596C89.1128 26.0642 88.4192 28.3503 88.4192 31.3181C88.4192 34.2829 89.1156 36.5691 90.5057 38.1766C91.8985 39.7812 93.617 40.5865 95.6667 40.5865Z" fill="white"/>
    <path d="M129.88 47.9996C127.986 47.9996 126.216 47.6075 124.574 46.8264C122.932 46.0452 121.491 44.9323 120.254 43.4906C119.017 42.049 118.04 40.2996 117.327 38.2397C116.611 36.1797 116.254 33.8754 116.254 31.3209C116.254 28.7693 116.611 26.462 117.327 24.402C118.043 22.3421 119.017 20.5928 120.254 19.1511C121.491 17.7094 122.93 16.5965 124.574 15.8153C126.216 15.0342 127.986 14.6421 129.88 14.6421C131.502 14.6421 132.883 14.8985 134.024 15.4142C135.165 15.9299 136.122 16.4939 136.895 17.1122C137.784 17.8542 138.537 18.6776 139.157 19.5824H139.446V15.565H147.565V47.0707H139.446V43.0563H139.157C138.537 43.9642 137.784 44.7875 136.895 45.5265C136.122 46.1448 135.165 46.7118 134.024 47.2245C132.883 47.7402 131.502 47.9996 129.88 47.9996ZM131.91 40.5862C134.112 40.5862 135.918 39.7839 137.331 38.1763C138.741 36.5688 139.449 34.2856 139.449 31.3178C139.449 28.3531 138.744 26.0669 137.331 24.4593C135.918 22.8518 134.112 22.0495 131.91 22.0495C129.86 22.0495 128.141 22.8518 126.749 24.4593C125.356 26.0639 124.662 28.35 124.662 31.3178C124.662 34.2826 125.359 36.5688 126.749 38.1763C128.139 39.7809 129.86 40.5862 131.91 40.5862Z" fill="white"/>
    <path d="M155.393 22.9786H151.625V15.5652H155.393V8.77002H163.513V15.5652H171.921V22.9786H163.513V39.6574H172.21V47.0709H155.393V22.9786Z" fill="white"/>
    <path d="M180.907 11.551C179.593 11.551 178.489 11.0865 177.603 10.1606C176.714 9.23462 176.269 8.15186 176.269 6.9183C176.269 5.68473 176.714 4.60197 177.603 3.67604C178.492 2.75011 179.593 2.28564 180.907 2.28564C182.22 2.28564 183.321 2.75011 184.21 3.67604C185.099 4.60197 185.544 5.68473 185.544 6.9183C185.544 8.15186 185.099 9.23462 184.21 10.1606C183.324 11.0865 182.22 11.551 180.907 11.551ZM176.847 15.5653H184.966V47.071H176.847V15.5653Z" fill="white"/>
    <path d="M205.842 47.9996C203.524 47.9996 201.366 47.5683 199.376 46.7027C197.383 45.8371 195.665 44.6548 194.215 43.1498C192.766 41.6478 191.633 39.8744 190.824 37.8385C190.011 35.7997 189.606 33.6281 189.606 31.3209C189.606 29.0136 190.011 26.842 190.824 24.8032C191.636 22.7643 192.766 20.9939 194.215 19.4919C195.665 17.9899 197.383 16.8046 199.376 15.939C201.366 15.0734 203.524 14.6421 205.842 14.6421C208.161 14.6421 210.307 15.0734 212.28 15.939C214.25 16.8046 215.963 17.9869 217.413 19.4919C218.862 20.9969 220.003 22.7673 220.835 24.8032C221.665 26.842 222.081 29.0136 222.081 31.3209C222.081 33.6281 221.665 35.7997 220.835 37.8385C220.003 39.8774 218.865 41.6478 217.413 43.1498C215.963 44.6548 214.253 45.8371 212.28 46.7027C210.307 47.5653 208.161 47.9996 205.842 47.9996ZM205.842 40.5862C206.924 40.5862 207.94 40.36 208.886 39.9076C209.831 39.4552 210.664 38.8278 211.38 38.0225C212.096 37.2203 212.657 36.2521 213.061 35.1181C213.466 33.987 213.67 32.7203 213.67 31.3178C213.67 29.9184 213.466 28.6517 213.061 27.5176C212.657 26.3866 212.096 25.4184 211.38 24.6132C210.664 23.8109 209.834 23.1835 208.886 22.7281C207.937 22.2757 206.924 22.0495 205.842 22.0495C204.761 22.0495 203.744 22.2757 202.799 22.7281C201.85 23.1805 201.021 23.8079 200.305 24.6132C199.588 25.4154 199.028 26.3836 198.623 27.5176C198.218 28.6517 198.014 29.9184 198.014 31.3178C198.014 32.7173 198.218 33.984 198.623 35.1181C199.028 36.2521 199.588 37.2172 200.305 38.0225C201.021 38.8248 201.85 39.4552 202.799 39.9076C203.744 40.36 204.758 40.5862 205.842 40.5862Z" fill="white"/>
    <path d="M226.716 15.5651H234.835V19.8901H235.124C235.665 18.9008 236.381 18.0352 237.27 17.2963C238.043 16.6388 239 16.0296 240.141 15.4746C241.281 14.9197 242.7 14.6392 244.401 14.6392C248.033 14.6392 250.876 15.7611 252.926 18.0051C254.975 20.249 256 23.5546 256 27.9218V47.0738H247.881V29.1584C247.881 26.8119 247.34 25.0415 246.258 23.8472C245.177 22.6528 243.688 22.0556 241.794 22.0556C240.865 22.0556 239.976 22.2607 239.127 22.6739C238.278 23.0871 237.533 23.6511 236.893 24.372C236.256 25.0928 235.752 25.9674 235.384 26.9989C235.016 28.0274 234.832 29.1615 234.832 30.398V47.0768H226.713V15.5651H226.716Z" fill="white"/>
</svg>